<?xml version="1.0" encoding="UTF-8"?><svg id="Layer_2" xmlns="http://www.w3.org/2000/svg" xmlns:xlink="http://www.w3.org/1999/xlink" viewBox="0 0 100.01 100.01"><defs><style>.cls-1{fill:url(#New_Gradient_Swatch_3);stroke-width:0px;}</style><linearGradient id="New_Gradient_Swatch_3" x1="0" y1="50.01" x2="100.01" y2="50.01" gradientUnits="userSpaceOnUse"><stop offset="0" stop-color="#926a14"/><stop offset=".02" stop-color="#926a14"/><stop offset=".54" stop-color="#cba635"/><stop offset=".78" stop-color="#e1ca5f"/><stop offset="1" stop-color="#f8ee89"/></linearGradient></defs><g id="Layer_1-2"><path class="cls-1" d="M29.73,82.74c-2.37,0-4.7-.35-7.01-.85,4.63,10.92,15.22,18.13,27.28,18.13s22.64-7.21,27.27-18.13c-2.3.51-4.64.85-7,.85-7.35,0-14.5-2.49-20.26-7.05-5.76,4.56-12.92,7.05-20.28,7.05M60.66,60.66c-1.71,4.95-4.62,9.36-8.38,12.96,5.17,3.94,11.49,6.12,18,6.12,2.81,0,5.59-.4,8.29-1.18.78-2.7,1.18-5.48,1.18-8.29,0-6.51-2.18-12.83-6.12-18-3.6,3.77-8,6.67-12.96,8.38M20.27,70.28c0,2.81.4,5.59,1.18,8.28,2.7.78,5.48,1.18,8.29,1.18,6.52,0,12.84-2.18,18-6.12-3.77-3.6-6.67-8.01-8.38-12.96-4.95-1.71-9.36-4.62-12.96-8.38-3.94,5.16-6.12,11.48-6.12,18M41.97,40.99l-.24.74-.73.24c-4.88,1.56-9.25,4.32-12.72,8.04,3.47,3.72,7.84,6.48,12.72,8.04l.74.24.24.74c1.55,4.87,4.32,9.25,8.04,12.72,3.71-3.47,6.48-7.84,8.04-12.72l.24-.74.74-.24c4.87-1.55,9.24-4.32,12.71-8.04-3.47-3.71-7.84-6.48-12.72-8.04l-.73-.24-.24-.74c-1.56-4.88-4.33-9.25-8.04-12.71-3.72,3.47-6.48,7.84-8.04,12.71M0,50.01c0,12.06,7.2,22.64,18.12,27.27-.51-2.3-.85-4.64-.85-7,0-7.36,2.49-14.51,7.05-20.28-4.55-5.77-7.05-12.91-7.05-20.26,0-2.37.35-4.7.85-7C7.2,27.37,0,37.95,0,50.01M82.74,29.74c0,7.36-2.5,14.51-7.05,20.28,4.55,5.77,7.05,12.91,7.05,20.26,0,2.36-.35,4.7-.85,7,10.92-4.63,18.12-15.22,18.12-27.27s-7.21-22.64-18.12-27.27c.5,2.3.85,4.64.85,7M21.45,21.45c-.78,2.69-1.18,5.48-1.18,8.28,0,6.51,2.18,12.83,6.12,18,3.6-3.76,8-6.67,12.96-8.38,1.71-4.95,4.61-9.36,8.38-12.96-5.17-3.94-11.49-6.12-18-6.12-2.8,0-5.59.4-8.29,1.18M52.27,26.39c3.76,3.6,6.67,8,8.38,12.96,4.96,1.71,9.36,4.62,12.96,8.38,3.94-5.16,6.12-11.49,6.12-18,0-2.81-.4-5.59-1.18-8.28-2.7-.78-5.49-1.18-8.29-1.18-6.52,0-12.84,2.18-18,6.12M50,0c-12.06,0-22.64,7.21-27.28,18.12,2.31-.5,4.64-.85,7.01-.85,7.35,0,14.5,2.49,20.26,7.05,5.76-4.56,12.91-7.05,20.27-7.05,2.36,0,4.7.35,7,.85C72.65,7.21,62.06,0,50,0Z"/></g></svg>
